<svg width="0" height="0" class="hidden">
  <symbol version="1.0" xmlns="http://www.w3.org/2000/svg" preserveAspectRatio="xMidYMid meet" viewBox="0 0 550.000000 550.000000" id="nentendo">
    <metadata>Created by potrace 1.13, written by Peter Selinger 2001-2015</metadata>
    <g transform="translate(0.000000,550.000000) scale(0.100000,-0.100000)" fill="#000000" stroke="none">
      <path d="M1365 5154 c-481 -86 -868 -442 -990 -910 -44 -169 -47 -268 -42
-1579 3 -1204 4 -1232 24 -1325 111 -501 467 -858 973 -976 66 -15 150 -18
691 -21 560 -4 618 -3 633 12 15 15 16 208 16 2396 0 1622 -3 2386 -10 2400
-10 18 -27 19 -613 18 -476 -1 -619 -4 -682 -15z m905 -2400 l0 -2026 -407 5
c-375 4 -415 6 -490 25 -322 83 -561 331 -628 654 -22 101 -22 2589 -1 2688
60 281 255 514 518 619 132 53 193 59 621 60 l387 1 0 -2026z"></path>
      <path d="M1451 4169 c-63 -12 -159 -60 -210 -105 -105 -91 -157 -220 -149
-372 4 -79 9 -100 41 -164 47 -97 118 -168 215 -216 67 -33 84 -37 171 -40 79
-3 107 0 160 18 217 73 348 284 311 500 -43 257 -287 429 -539 379z"></path>
      <path d="M3157 5163 c-4 -3 -7 -1087 -7 -2409 0 -2181 1 -2402 16 -2408 27
-10 803 -6 899 4 406 46 764 293 959 660 25 47 58 126 75 175 63 188 61 138
61 1575 0 1147 -2 1318 -16 1391 -99 521 -496 914 -1018 1004 -70 12 -178 15
-526 15 -240 0 -440 -3 -443 -7z m1068 -2178 c156 -41 284 -160 336 -312 33
-94 32 -232 -1 -318 -61 -158 -181 -269 -335 -310 -250 -65 -516 86 -589 334
-22 76 -21 204 4 282 75 245 335 389 585 324z"></path>
    </g>
  </symbol>
  <symbol version="1.0" xmlns="http://www.w3.org/2000/svg" preserveAspectRatio="xMidYMid meet" viewBox="0 0 512.000000 512.000000" id="family">
    <g transform="translate(0.000000,512.000000) scale(0.100000,-0.100000)" fill="#000000" stroke="none">
      <path d="M1453 5030 c-120 -18 -277 -81 -383 -153 -61 -41 -164 -141 -207
-200 -23 -31 -54 -57 -87 -74 -72 -36 -167 -105 -206 -150 -130 -148 -192
-356 -161 -539 7 -38 43 -163 81 -279 37 -115 73 -232 79 -259 33 -136 137
-234 268 -252 l51 -6 6 -50 c9 -66 46 -165 87 -235 39 -64 148 -185 191 -210
l28 -17 0 -151 0 -151 -197 -43 c-259 -57 -347 -83 -441 -130 -224 -112 -381
-307 -455 -561 -21 -73 -21 -91 -25 -783 l-3 -707 2481 0 2481 0 -3 798 c-4
789 -4 798 -26 869 -48 158 -121 280 -227 383 l-64 61 -3 857 -4 857 -27 94
c-52 177 -139 322 -268 447 -126 120 -257 195 -420 239 -238 65 -465 33 -624
-88 -36 -28 -60 -37 -119 -46 -90 -13 -187 -47 -263 -92 -67 -40 -169 -132
-208 -189 -15 -22 -31 -40 -35 -40 -4 0 -15 19 -24 42 -28 68 -100 172 -175
251 -62 65 -72 81 -81 128 -29 158 -148 297 -305 360 -58 23 -70 24 -360 25
-165 1 -323 -1 -352 -6z m678 -176 c67 -31 124 -87 156 -152 24 -48 28 -70 28
-137 0 -67 -4 -89 -27 -135 -15 -30 -44 -72 -65 -92 -36 -35 -41 -37 -73 -28
-149 43 -333 -60 -373 -207 l-11 -42 -145 -40 c-80 -23 -180 -48 -221 -56
-104 -22 -310 -45 -398 -45 -64 0 -76 3 -97 25 -33 32 -33 78 0 110 20 21 34
25 80 25 l55 0 0 80 0 80 -56 0 c-87 0 -133 -18 -189 -75 -71 -70 -91 -146
-63 -237 14 -48 76 -121 118 -138 42 -17 38 -27 -17 -35 -49 -7 -110 -34 -152
-67 -14 -10 -28 -15 -31 -11 -19 21 -83 244 -88 304 -14 201 94 382 284 475
82 40 96 51 130 102 72 109 191 206 321 261 126 54 179 60 498 58 273 -2 293
-3 336 -23z m1761 -308 c335 -65 589 -319 654 -654 11 -60 14 -220 14 -839 0
-725 -1 -765 -17 -757 -71 31 -165 55 -268 69 -66 9 -140 20 -165 24 l-44 6
-23 110 c-12 61 -22 117 -22 125 0 8 27 33 60 55 73 48 171 152 218 229 18 31
47 95 65 143 l31 88 0 230 0 230 -27 51 c-40 76 -70 107 -140 144 l-63 34
-210 6 c-209 6 -210 6 -277 37 -37 17 -87 50 -112 73 -56 52 -112 160 -121
235 l-7 55 -80 0 -80 0 7 -68 7 -68 -57 -38 c-127 -88 -229 -243 -261 -396
-12 -59 -15 -123 -12 -300 4 -221 5 -227 35 -313 55 -156 143 -274 272 -365
36 -25 68 -47 70 -49 5 -3 -17 -114 -24 -121 -2 -2 -25 14 -51 37 -104 91
-260 174 -391 207 l-73 18 0 551 c0 348 4 573 11 611 6 32 28 95 49 140 89
184 292 314 493 314 32 0 48 7 82 39 113 104 275 142 457 107z m-1392 -207
c84 -107 140 -270 140 -409 0 -69 -24 -183 -51 -248 l-19 -44 -33 32 c-50 50
-127 81 -221 90 -61 5 -107 17 -186 49 -58 24 -119 51 -137 62 -37 23 -73 91
-73 138 0 73 77 151 149 151 75 0 127 -44 156 -131 9 -27 19 -49 23 -49 3 0
37 10 75 22 68 22 69 23 63 53 -3 16 -19 57 -35 89 l-29 59 42 52 c24 29 51
71 62 93 10 23 22 42 26 42 4 0 26 -23 48 -51z m899 -443 c44 -56 120 -121
180 -151 100 -50 139 -57 353 -64 226 -7 233 -8 282 -75 20 -26 21 -41 21
-229 0 -221 -5 -251 -68 -369 -35 -67 -130 -167 -194 -205 -288 -168 -652 -62
-793 231 -51 107 -60 164 -60 381 0 202 10 260 62 357 28 53 146 178 167 178
5 0 27 -24 50 -54z m-1600 -42 c42 -78 107 -126 242 -180 l121 -48 -4 -271
c-4 -260 -5 -272 -29 -336 -37 -95 -70 -148 -135 -213 -220 -219 -568 -219
-788 0 -77 78 -138 190 -155 288 -6 34 -11 191 -11 362 l0 303 43 5 c320 35
454 60 637 119 25 8 47 15 50 16 3 1 16 -20 29 -45z m-919 -414 c0 -177 1
-173 -63 -146 -125 52 -126 238 -2 292 66 29 65 31 65 -146z m1529 132 c49
-36 66 -70 66 -132 0 -44 -5 -66 -21 -86 -28 -39 -63 -63 -101 -70 l-33 -6 0
162 0 163 33 -7 c17 -3 43 -14 56 -24z m231 -472 l0 -300 -109 0 c-113 0 -246
-19 -320 -45 -24 -8 -46 -13 -48 -11 -2 2 14 30 36 61 47 67 97 190 107 262
l6 51 51 6 c63 9 136 45 183 92 39 40 84 125 84 162 0 12 2 22 5 22 3 0 5
-135 5 -300z m130 -474 c404 -74 696 -447 667 -855 -7 -92 -45 -242 -63 -248
-7 -2 -13 18 -17 54 -14 159 -121 293 -276 348 -25 8 -149 24 -294 36 -186 15
-263 26 -294 39 -71 31 -107 114 -83 193 15 52 57 91 120 112 28 9 50 22 50
29 0 30 -43 136 -56 136 -36 0 -128 -46 -173 -86 -60 -54 -98 -128 -109 -209
l-7 -59 -93 -27 c-112 -32 -188 -77 -253 -147 -87 -95 -129 -209 -129 -354 0
-93 -18 -86 -48 18 -130 453 168 933 633 1019 93 17 331 18 425 1z m910 -61
c47 0 108 4 136 8 l51 8 23 -116 23 -116 -24 -25 c-74 -79 -234 -103 -341 -51
-30 15 -65 38 -77 51 l-24 25 23 116 23 116 51 -8 c28 -4 89 -8 136 -8z
m-2212 -71 c91 -17 178 -18 260 0 34 7 62 11 62 9 0 -1 -25 -33 -55 -70 -62
-78 -135 -211 -161 -296 l-18 -58 -98 98 -98 98 0 123 c0 114 1 124 18 117 9
-4 50 -13 90 -21z m2753 -283 c223 -30 334 -79 458 -202 79 -79 132 -165 168
-274 26 -77 27 -90 31 -347 l4 -268 -161 0 -161 0 0 160 0 160 -80 0 -80 0 0
-600 0 -600 -297 0 -298 1 -32 53 c-51 84 -167 200 -263 265 -125 83 -251 129
-431 156 l-37 5 70 68 c38 37 90 99 116 137 25 39 47 72 48 74 2 2 21 -11 43
-28 21 -17 66 -44 98 -59 57 -27 61 -27 296 -30 130 -2 237 -2 237 1 0 2 -27
85 -60 183 -82 242 -139 324 -274 395 -33 17 -63 33 -64 35 -2 1 6 45 19 96
28 115 32 335 8 433 l-15 60 110 1 c134 1 195 21 289 94 36 28 73 49 88 49 15
1 91 -8 170 -18z m-2834 -193 c121 -121 133 -136 133 -169 l0 -36 -131 -52
c-73 -28 -133 -50 -134 -49 -1 2 -23 89 -49 193 -26 105 -49 197 -52 206 -3
13 5 19 33 27 21 5 45 10 53 11 8 1 74 -59 147 -131z m-318 -223 c43 -175 78
-295 85 -295 6 0 95 33 196 74 l185 74 17 -66 c10 -37 18 -71 18 -77 0 -5 -29
-25 -64 -43 -72 -37 -152 -112 -191 -177 -19 -34 -145 -382 -145 -402 0 -3
107 -3 238 -1 234 3 238 3 295 30 32 15 77 42 98 59 22 17 41 30 43 28 1 -2
23 -35 48 -74 26 -38 78 -100 116 -137 l70 -68 -37 -5 c-179 -27 -300 -71
-428 -155 -99 -65 -213 -180 -266 -266 l-32 -53 -297 -1 -298 0 0 560 0 560
-80 0 -80 0 0 -160 0 -160 -161 0 -161 0 4 223 c4 206 7 228 31 302 64 193
214 362 393 441 56 24 267 81 309 83 18 1 27 -27 94 -294z m1273 119 c83 -77
108 -84 412 -110 305 -26 334 -34 393 -112 49 -64 56 -105 51 -292 -4 -146 -7
-173 -30 -238 -37 -103 -83 -176 -158 -252 -76 -76 -167 -132 -265 -163 -57
-18 -93 -22 -190 -22 -104 1 -130 5 -193 27 -166 60 -297 172 -370 318 -62
125 -74 196 -70 430 3 186 4 197 29 250 28 59 85 122 134 148 37 19 163 60
189 61 10 1 41 -20 68 -45z m-574 -646 l11 -93 -42 -44 c-68 -70 -123 -91
-244 -91 l-102 0 24 71 c14 39 34 86 45 105 48 77 165 143 255 144 l41 0 12
-92z m1720 77 c59 -18 140 -78 171 -128 12 -20 32 -67 46 -106 l24 -71 -102 0
c-121 0 -176 21 -244 91 l-42 44 11 93 12 92 36 0 c20 0 59 -7 88 -15z m1392
-745 l0 -360 -160 0 -160 0 0 360 0 360 160 0 160 0 0 -360z m-4320 -40 l0
-320 -160 0 -160 0 0 320 0 320 160 0 160 0 0 -320z m2625 -24 c146 -43 263
-115 365 -222 l65 -69 -528 -3 c-290 -1 -764 -1 -1055 0 l-527 3 60 64 c126
133 287 219 460 244 17 3 271 4 565 3 479 -2 541 -4 595 -20z"></path>
      <path d="M3348 3198 c-68 -23 -70 -31 -27 -106 160 -279 558 -280 718 -1 45
78 43 84 -41 110 -40 12 -73 18 -75 13 -25 -71 -105 -146 -176 -165 -114 -31
-246 28 -292 131 -21 46 -27 47 -107 18z"></path>
      <path d="M1268 3118 c-68 -23 -70 -31 -27 -106 160 -279 558 -280 718 -1 45
78 43 84 -41 111 -42 14 -73 19 -75 13 -25 -72 -104 -146 -176 -166 -114 -31
-246 28 -292 131 -21 46 -27 47 -107 18z"></path>
      <path d="M2228 1278 c-68 -23 -70 -31 -27 -106 160 -279 558 -280 718 -1 45
78 43 84 -41 111 -42 14 -73 19 -75 13 -25 -72 -104 -146 -176 -166 -114 -31
-246 28 -292 131 -21 46 -27 47 -107 18z"></path>
    </g>
  </symbol>
  <symbol version="1.0" xmlns="http://www.w3.org/2000/svg" preserveAspectRatio="xMidYMid meet" viewBox="0 0 512.000000 512.000000" id="safe">
    <g transform="translate(0.000000,512.000000) scale(0.100000,-0.100000)" fill="#000000" stroke="none">
      <path d="M2447 5096 c-64 -27 -93 -47 -187 -133 -82 -75 -203 -165 -300 -225
-290 -178 -592 -270 -1005 -308 -83 -8 -154 -20 -197 -35 -174 -60 -305 -205
-353 -390 -13 -48 -17 -146 -22 -475 -8 -543 11 -869 72 -1233 133 -796 497
-1401 1105 -1834 295 -210 842 -463 1000 -463 90 0 330 91 595 225 279 141
471 272 682 464 349 317 611 755 747 1248 120 435 163 888 153 1608 -5 316 -9
413 -22 460 -48 185 -179 330 -353 390 -43 15 -114 27 -197 35 -563 51 -933
205 -1325 551 -111 98 -179 132 -270 136 -51 3 -77 -2 -123 -21z m219 -362
c406 -360 841 -542 1434 -599 122 -12 164 -20 200 -38 51 -27 104 -91 120
-145 16 -59 24 -786 11 -1017 -13 -217 -32 -406 -56 -555 -145 -885 -579
-1494 -1343 -1883 -181 -92 -425 -191 -472 -191 -19 0 -100 26 -180 58 -960
385 -1481 1034 -1639 2041 -48 308 -56 449 -55 990 1 360 4 522 13 552 16 59
68 123 121 150 36 18 78 26 200 38 593 57 1028 239 1434 599 53 47 101 86 106
86 5 0 53 -39 106 -86z"></path>
      <path d="M2495 3833 c-556 -30 -1025 -413 -1168 -953 -53 -196 -53 -444 0
-640 129 -486 524 -850 1015 -935 120 -21 316 -21 436 0 491 85 886 449 1015
935 54 203 53 446 -4 655 -95 349 -339 646 -664 807 -189 94 -423 142 -630
131z m229 -314 c183 -26 364 -119 513 -262 194 -187 294 -424 294 -697 0 -273
-99 -509 -294 -697 -192 -186 -411 -274 -677 -274 -266 0 -485 88 -677 274
-195 188 -294 423 -294 697 0 274 99 509 294 697 232 223 507 309 841 262z"></path>
      <path d="M2975 2986 c-16 -8 -165 -149 -330 -315 -165 -166 -304 -301 -309
-301 -6 0 -53 42 -106 94 -110 108 -139 121 -216 91 -81 -31 -119 -128 -80
-203 8 -15 86 -97 173 -184 130 -128 165 -158 195 -163 81 -15 78 -17 476 378
205 205 380 384 388 399 8 15 14 47 14 71 0 105 -110 176 -205 133z"></path>
    </g>
  </symbol>
  <symbol version="1.0" xmlns="http://www.w3.org/2000/svg" preserveAspectRatio="xMidYMid meet" viewBox="0 0 512.000000 512.000000" id="share">
    <g transform="translate(0.000000,512.000000) scale(0.100000,-0.100000)" fill="#000000" stroke="none">
      <path d="M3932 5106 c-124 -24 -213 -55 -244 -86 -38 -39 -38 -88 0 -131 34
-38 77 -41 163 -11 319 111 713 -19 914 -303 152 -215 194 -489 112 -730 -27
-78 -58 -145 -66 -145 -3 0 -19 24 -34 53 -52 101 -154 186 -263 222 l-51 16
25 62 c30 74 40 210 23 302 -35 184 -167 316 -348 346 -174 29 -356 -64 -435
-222 -56 -113 -63 -308 -16 -426 l25 -62 -26 -6 c-106 -26 -234 -129 -287
-230 -16 -30 -32 -55 -35 -55 -11 0 -67 134 -84 200 -35 136 -29 317 16 447
27 79 25 116 -9 154 -21 24 -36 31 -64 31 -74 0 -95 -29 -135 -181 -47 -186
-40 -392 21 -573 l23 -69 -81 -43 c-45 -25 -249 -134 -455 -244 l-375 -200
-35 46 c-68 92 -147 175 -216 232 -360 293 -831 358 -1267 175 -110 -46 -143
-80 -135 -139 7 -51 44 -86 91 -86 18 0 68 16 111 36 43 20 121 47 174 61 82
22 118 26 246 26 130 0 163 -3 246 -25 193 -52 347 -138 476 -267 132 -132
222 -288 271 -471 22 -83 25 -115 25 -250 0 -134 -3 -168 -25 -250 -14 -52
-41 -128 -59 -169 l-33 -73 -34 68 c-70 139 -217 255 -381 300 l-60 17 24 41
c52 89 68 161 68 306 1 150 -13 216 -64 306 -65 115 -177 207 -298 244 -79 25
-215 27 -292 4 -163 -48 -301 -184 -351 -348 -18 -58 -22 -95 -22 -201 0 -142
19 -230 68 -310 l24 -39 -93 -31 c-51 -17 -115 -46 -143 -64 -72 -46 -167
-151 -205 -227 l-33 -66 -27 64 c-126 299 -126 581 2 862 17 38 31 84 31 102
0 76 -94 120 -154 73 -58 -46 -134 -252 -162 -440 -67 -456 140 -922 526
-1180 208 -139 423 -204 680 -204 404 0 741 172 991 506 l35 47 452 -242 c392
-209 452 -244 448 -261 -2 -11 -17 -65 -32 -120 -24 -89 -27 -116 -27 -255 0
-136 3 -167 26 -255 97 -363 370 -635 736 -733 84 -22 116 -25 251 -25 135 0
167 3 251 25 574 154 894 734 719 1300 -26 86 -53 118 -105 125 -76 10 -123
-54 -100 -137 7 -25 20 -72 29 -105 35 -127 30 -312 -11 -435 -21 -63 -64
-160 -72 -160 -3 0 -19 24 -34 53 -52 101 -154 186 -263 222 l-51 16 25 62
c30 74 40 210 23 302 -34 182 -164 313 -343 346 -172 32 -361 -64 -440 -222
-56 -112 -63 -308 -16 -425 l25 -62 -41 -12 c-106 -31 -220 -125 -272 -225
-16 -30 -32 -55 -35 -55 -12 0 -68 136 -86 205 -25 103 -23 305 5 409 61 223
237 432 445 526 193 87 412 101 596 38 77 -26 123 -24 154 7 30 31 37 62 23
106 -14 43 -51 63 -172 96 -87 23 -117 26 -254 26 -134 0 -168 -3 -251 -26
-116 -30 -224 -79 -320 -144 -80 -53 -205 -172 -245 -233 -15 -22 -29 -40 -33
-40 -5 0 -901 477 -907 483 -2 2 10 41 26 87 92 270 88 581 -11 832 -11 28
-18 52 -17 53 6 5 885 474 900 480 10 4 24 -8 42 -35 14 -22 60 -74 101 -114
130 -129 280 -214 460 -263 88 -23 119 -26 255 -26 136 0 167 3 255 26 317 85
573 310 691 608 177 448 18 959 -382 1225 -168 112 -328 162 -534 169 -82 3
-150 0 -198 -9z m233 -607 c56 -16 129 -91 145 -149 7 -26 10 -80 8 -127 -4
-69 -9 -89 -34 -129 -63 -103 -196 -133 -300 -68 -71 43 -104 112 -104 213 0
87 10 130 41 176 54 78 148 110 244 84z m-175 -693 c70 -20 151 -20 220 0 76
23 102 21 205 -10 80 -25 96 -34 140 -79 53 -54 71 -97 82 -186 l6 -49 -49
-36 c-76 -55 -192 -113 -280 -138 -113 -32 -315 -32 -427 0 -94 27 -203 80
-276 134 l-53 40 7 61 c15 134 82 211 222 252 48 15 93 28 98 30 12 5 33 1
105 -19z m-2632 -666 c70 -36 115 -83 148 -155 44 -97 40 -285 -7 -377 -70
-138 -244 -203 -392 -148 -76 29 -130 79 -169 158 -32 64 -33 71 -33 187 1
108 3 126 26 175 36 78 80 124 151 160 52 26 72 30 138 30 66 0 86 -4 138 -30z
m-318 -872 c46 -18 75 -22 175 -23 102 0 130 4 185 24 l66 23 99 -26 c157 -42
202 -63 265 -125 66 -66 95 -124 112 -222 l12 -71 -49 -44 c-125 -110 -272
-188 -434 -232 -84 -22 -116 -25 -251 -25 -135 0 -167 3 -251 25 -162 44 -298
116 -426 227 -58 49 -62 64 -43 149 26 109 104 213 196 258 49 24 238 82 274
83 8 1 40 -9 70 -21z m3125 -849 c56 -16 129 -91 145 -149 7 -26 10 -80 8
-127 -4 -69 -9 -89 -34 -129 -63 -103 -196 -133 -300 -68 -71 43 -104 112
-104 213 0 87 10 130 41 176 54 78 148 110 244 84z m-175 -693 c70 -20 151
-20 220 0 76 23 102 21 205 -10 80 -25 96 -34 140 -79 52 -54 71 -97 82 -186
l5 -48 -65 -47 c-79 -57 -188 -107 -282 -132 -94 -24 -292 -25 -390 -1 -84 21
-232 91 -299 142 l-48 38 7 60 c15 134 82 211 222 252 48 15 93 28 98 30 12 5
33 1 105 -19z"></path>
      <path d="M3401 4836 c-13 -7 -30 -24 -37 -37 -56 -102 77 -198 157 -113 73 78
-26 202 -120 150z"></path>
      <path d="M359 3421 c-49 -49 -35 -126 29 -157 66 -31 136 16 136 92 0 28 -7
43 -32 65 -44 40 -93 39 -133 0z"></path>
      <path d="M4688 1741 c-68 -61 -28 -166 63 -166 34 0 46 6 70 33 44 49 34 119
-22 148 -42 21 -75 17 -111 -15z"></path>
    </g>
  </symbol>
</svg>