<?xml version="1.0" standalone="no"?>
<!DOCTYPE svg PUBLIC "-//W3C//DTD SVG 20010904//EN"
 "http://www.w3.org/TR/2001/REC-SVG-20010904/DTD/svg10.dtd">
<svg version="1.0" xmlns="http://www.w3.org/2000/svg"
 width="920.000000pt" height="228.000000pt" viewBox="0 0 920.000000 228.000000"
 preserveAspectRatio="xMidYMid meet">

<g transform="translate(0.000000,228.000000) scale(0.100000,-0.100000)"
fill="#000000" stroke="none">
<path fill="#e60000" d="M958 2264 c-484 -75 -870 -464 -943 -951 -35 -232 -2 -445 100 -659
157 -326 424 -536 795 -626 45 -11 695 -13 3685 -13 3448 0 3634 1 3703 18
428 104 744 405 857 817 35 127 45 351 21 486 -84 483 -471 861 -948 929 -149
21 -7135 21 -7270 -1z m7307 -277 c330 -97 557 -326 635 -639 26 -108 29 -277
6 -386 -58 -268 -251 -503 -505 -613 -175 -75 164 -69 -3809 -69 l-3569 0 -94
24 c-109 27 -168 53 -263 113 -262 168 -413 467 -393 782 26 401 326 733 724
801 26 4 1659 7 3628 6 3394 -1 3583 -2 3640 -19z"/>
<path fill="#e60000" d="M8328 1750 c-47 -14 -88 -44 -116 -84 -24 -35 -27 -49 -27 -117 0
-71 2 -80 31 -116 43 -53 98 -83 157 -83 120 0 207 85 207 201 0 135 -128 237
-252 199z m130 -41 c109 -53 131 -192 43 -280 -69 -69 -163 -72 -235 -8 -96
83 -77 232 36 288 54 27 100 27 156 0z"/>
<path fill="#e60000" d="M8302 1554 c2 -83 7 -119 16 -122 9 -3 12 12 12 52 0 54 1 56 28 56
22 0 32 -9 55 -50 27 -48 44 -66 53 -58 2 3 -8 26 -22 52 -14 26 -25 48 -23
49 36 19 44 28 52 51 7 22 5 34 -10 55 -18 23 -28 26 -92 29 l-72 3 3 -117z
m129 86 c21 -12 25 -50 7 -68 -7 -7 -34 -12 -60 -12 l-48 0 0 45 0 45 41 0
c22 0 49 -5 60 -10z"/>
<path fill="#e60000" d="M918 1150 l-3 -530 157 0 158 0 2 376 3 377 235 -376 235 -377 158 0
157 0 0 530 0 530 -155 0 -155 0 -2 -377 -3 -378 -48 75 c-27 41 -133 210
-235 375 l-187 300 -157 3 -158 3 -2 -531z"/>
<path fill="#e60000" d="M2220 1575 l0 -105 160 0 160 0 0 105 0 105 -160 0 -160 0 0 -105z"/>
<path fill="#e60000" d="M6950 1486 l0 -195 -57 26 c-191 88 -418 -7 -500 -208 -13 -33 -18
-70 -18 -144 1 -92 3 -105 32 -160 79 -153 239 -236 395 -205 34 6 79 20 100
31 45 23 48 23 48 4 0 -13 24 -15 160 -15 l160 0 0 530 0 530 -160 0 -160 0 0
-194z m-59 -269 c55 -37 59 -54 59 -245 0 -143 -3 -179 -16 -202 -34 -56 -105
-76 -164 -45 -54 28 -60 55 -60 254 l0 179 27 32 c46 55 99 64 154 27z"/>
<path fill="#e60000" d="M3830 1500 l0 -70 -85 0 -85 0 0 -50 0 -50 85 0 85 0 0 -355 0 -355
155 0 155 0 0 355 0 355 90 0 90 0 0 50 0 50 -90 0 -90 0 0 70 0 70 -155 0
-155 0 0 -70z"/>
<path fill="#e60000" d="M4638 1355 c-180 -39 -314 -165 -347 -327 -44 -208 134 -414 390
-450 207 -29 421 69 503 230 l26 52 -165 0 -165 0 0 -61 c0 -56 -3 -64 -33
-94 -44 -44 -93 -53 -143 -29 -66 33 -78 60 -82 185 l-4 109 306 0 306 0 -6
43 c-34 239 -313 402 -586 342z m206 -109 c31 -32 35 -41 38 -102 2 -41 -1
-68 -8 -71 -5 -2 -64 -2 -130 -1 l-119 3 -3 35 c-5 51 16 110 50 142 25 23 39
28 84 28 47 0 57 -4 88 -34z"/>
<path fill="#e60000" d="M7670 1346 c-120 -41 -209 -116 -260 -219 -72 -144 -38 -303 90 -420
191 -174 516 -169 700 13 63 62 93 119 109 203 34 185 -108 376 -324 433 -81
22 -238 17 -315 -10z m248 -84 c48 -31 52 -55 52 -296 l0 -225 -33 -34 c-43
-46 -92 -56 -143 -31 -75 38 -78 47 -77 281 1 114 2 218 2 230 1 30 64 91 98
95 39 4 74 -3 101 -20z"/>
<path fill="#e60000" d="M3172 1332 c-29 -11 -73 -34 -97 -51 l-45 -32 0 40 0 41 -155 0 -155
0 -2 -355 -3 -355 158 0 157 0 0 235 c0 215 2 239 20 274 53 104 199 109 260
9 18 -31 20 -51 20 -275 l0 -243 160 0 160 0 0 233 c0 275 -7 309 -75 384 -64
73 -144 106 -260 110 -69 3 -102 -1 -143 -15z"/>
<path fill="#e60000" d="M5780 1329 c-30 -11 -71 -33 -92 -49 -20 -17 -39 -30 -42 -30 -3 0
-6 18 -6 40 l0 40 -155 0 -155 0 0 -355 0 -355 154 0 155 0 3 243 c3 263 6
277 65 321 28 21 90 32 127 22 34 -8 86 -54 98 -85 5 -15 10 -131 10 -263 l0
-238 159 0 159 0 0 248 c0 241 -1 248 -24 297 -29 59 -48 82 -97 118 -89 66
-246 86 -359 46z"/>
<path fill="#e60000" d="M2220 975 l0 -355 160 0 160 0 0 355 0 355 -160 0 -160 0 0 -355z"/>
</g>
</svg>
